<?xml version="1.0" encoding="utf-8"?>
<!-- Generator: Adobe Illustrator 24.1.2, SVG Export Plug-In . SVG Version: 6.00 Build 0)  -->
<svg version="1.1" id="Layer_1" xmlns="http://www.w3.org/2000/svg" xmlns:xlink="http://www.w3.org/1999/xlink" x="0px" y="0px"
	 viewBox="0 0 32 32" style="enable-background:new 0 0 32 32;" xml:space="preserve">
<style type="text/css">
	.st0{fill:#FFFFFF;}
	.st1{fill:none;}
</style>
<g>
	<path class="st0" d="M101.55,161.36c-0.05,0.27-0.11,0.54-0.23,0.79c-0.11,0.22-0.24,0.42-0.44,0.56c-0.33,0.24-0.7,0.3-1.09,0.18
		c-0.14-0.04-0.25-0.13-0.34-0.25c-0.28,0.27-0.59,0.47-0.99,0.36c-0.38-0.11-0.64-0.34-0.72-0.73c-0.2,0.05-0.39,0.12-0.59,0.14
		c-0.19,0.02-0.39,0.04-0.58,0c-0.42-0.08-0.66-0.41-0.63-0.84c0.03-0.37,0.17-0.7,0.35-1.02c0.08-0.13,0.16-0.25,0.23-0.38
		c0.04-0.07,0.07-0.15,0.09-0.23c0.02-0.16,0-0.29-0.13-0.42c-0.37-0.34-0.73-0.69-1.03-1.1c-0.32-0.44-0.61-0.91-0.75-1.45
		c-0.1-0.4-0.11-0.8-0.05-1.2c0.12-0.87,0.46-1.66,0.87-2.42c0.25-0.46,0.5-0.92,0.73-1.38c0.09-0.18,0.14-0.38,0.2-0.58
		c0.02-0.08,0.01-0.17,0.01-0.25c-0.03-0.61,0.01-1.21,0.08-1.82c0.05-0.39,0.12-0.78,0.17-1.17c0.01-0.06-0.01-0.13-0.03-0.2
		c-0.06-0.35-0.13-0.71-0.18-1.06c-0.04-0.26-0.06-0.53-0.08-0.8c-0.03-0.41-0.05-0.82-0.06-1.23c-0.01-0.86,0.11-1.7,0.34-2.53
		c0.24-0.88,0.57-1.73,1.05-2.51c0.09-0.14,0.19-0.28,0.3-0.4c0.32-0.38,0.72-0.47,1.19-0.33c0.34,0.1,0.63,0.3,0.9,0.51
		c0.41,0.32,0.69,0.73,0.96,1.17c0.16,0.26,0.31,0.52,0.46,0.78c0.42-0.15,0.83-0.29,1.23-0.45c0.15-0.06,0.28-0.14,0.41-0.22
		c0.44-0.3,0.93-0.47,1.46-0.54c0.51-0.06,1-0.02,1.47,0.19c0.12,0.05,0.23,0.15,0.35,0.2c0.08,0.03,0.17,0.05,0.25,0.05
		c0.21-0.01,0.41-0.08,0.59-0.18c0.64-0.35,1.32-0.56,2.04-0.65c0.84-0.11,1.65-0.01,2.46,0.2c0.54,0.14,1.05,0.34,1.55,0.59
		c0.12,0.06,0.22,0.13,0.33,0.2c0.04,0.03,0.07,0.03,0.11,0c0.38-0.27,0.76-0.54,1.17-0.76c0.4-0.21,0.81-0.39,1.26-0.47
		c0.41-0.08,0.81-0.06,1.2,0.11c0.2,0.08,0.36,0.21,0.49,0.38c0.29,0.37,0.44,0.8,0.51,1.26c0.05,0.38,0.06,0.77,0.05,1.15
		c-0.02,0.52-0.06,1.04-0.16,1.56c-0.09,0.51-0.18,1.02-0.28,1.52c-0.02,0.11-0.07,0.22-0.1,0.33c-0.01,0.03-0.01,0.08,0.01,0.1
		c0.49,0.67,0.87,1.4,1.15,2.18c0.21,0.59,0.39,1.19,0.51,1.8c0.09,0.46,0.15,0.92,0.09,1.39c-0.05,0.38-0.15,0.74-0.44,1.02
		c0,0,0,0.01,0,0c0.51,0.48,0.79,1.08,0.95,1.74c0.11,0.49,0.02,0.97-0.16,1.44c-0.15,0.41-0.37,0.78-0.59,1.16
		c-0.12,0.22-0.24,0.45-0.3,0.7c-0.05,0.25-0.03,0.49,0.1,0.72c0.11,0.19,0.28,0.3,0.5,0.31c0.27,0.01,0.54,0,0.8,0.02
		c0.15,0.01,0.32,0.04,0.46,0.09c0.34,0.13,0.51,0.41,0.53,0.77c0.04,0.59-0.21,1.05-0.64,1.43c-0.26,0.23-0.56,0.39-0.9,0.45
		c-0.04,0.01-0.08,0.01-0.13,0.02c0.05,0.32-0.08,0.59-0.29,0.81c-0.21,0.23-0.47,0.35-0.78,0.37c0,0.09,0,0.17-0.01,0.25
		c-0.05,0.33-0.25,0.57-0.54,0.72c-0.28,0.15-0.59,0.21-0.91,0.18c-0.34-0.03-0.65-0.12-0.93-0.33c-0.19,0.24-0.42,0.38-0.71,0.44
		c-0.61,0.12-1.13-0.05-1.55-0.5c-0.02-0.02-0.06-0.05-0.09-0.05c-0.79,0.06-1.42-0.48-1.69-1.1c-0.11-0.24-0.18-0.5-0.18-0.77
		c0-0.02,0-0.03-0.01-0.05c-0.1,0.03-0.19,0.06-0.29,0.09c-0.73,0.22-1.47,0.39-2.22,0.52c-0.39,0.07-0.78,0.13-1.17,0.17
		c-0.39,0.04-0.78,0.06-1.17,0.09c-0.24,0.01-0.48,0.02-0.72,0.01c-0.46-0.02-0.93-0.05-1.39-0.07c-0.29-0.02-0.59-0.04-0.88-0.07
		c-0.61-0.06-1.21-0.16-1.8-0.33c-0.32-0.1-0.63-0.21-0.95-0.32C101.59,161.37,101.57,161.37,101.55,161.36z M114.65,153.42
		c0.21-0.02,0.4-0.04,0.6-0.06c0.04-0.01,0.09-0.03,0.12-0.05c0.15-0.13,0.29-0.27,0.43-0.41c0.05-0.05,0.11-0.09,0.17-0.14
		c-0.02-0.01-0.03-0.02-0.05-0.03c-0.25-0.15-0.51-0.28-0.75-0.46c-0.82-0.6-1.52-1.33-2.14-2.12c-0.32-0.4-0.7-0.73-1.14-0.99
		c-0.41-0.24-0.87-0.39-1.32-0.53c-0.58-0.18-1.14-0.37-1.67-0.68c-0.05-0.03-0.1-0.06-0.18-0.1c0.02,0.04,0.03,0.06,0.04,0.08
		c0.21,0.37,0.44,0.74,0.58,1.15c0.01,0.02,0.01,0.03,0.02,0.04c0.21,0.35,0.43,0.7,0.64,1.05c0.01,0.02,0.01,0.03,0.02,0.05
		c-0.13,0.02-0.25,0.03-0.37,0.05c-0.05,0.01-0.08,0-0.11-0.05c-0.14-0.23-0.28-0.46-0.43-0.69c-0.05-0.07-0.09-0.15-0.15-0.21
		c-0.35-0.35-0.76-0.6-1.25-0.67c-0.3-0.04-0.6-0.06-0.9-0.09c-0.51-0.05-0.99-0.19-1.44-0.45c-0.01-0.01-0.03-0.01-0.06-0.02
		c0.02,0.03,0.03,0.05,0.04,0.06c0.31,0.42,0.62,0.83,0.99,1.2c0.45,0.46,0.96,0.85,1.47,1.25c0.11,0.08,0.22,0.17,0.33,0.26
		c-0.11,0.06-0.22,0.12-0.31,0.18c-0.05,0.03-0.08,0.03-0.12-0.01c-0.17-0.13-0.34-0.25-0.51-0.38c-0.08-0.06-0.17-0.11-0.28-0.12
		c-0.2-0.02-0.39-0.07-0.58-0.1c-0.89-0.15-1.6-0.58-2.14-1.3c-0.44-0.57-0.74-1.21-0.93-1.9c-0.02-0.06-0.01-0.15-0.05-0.18
		c-0.04-0.03-0.13-0.02-0.2-0.02c-0.32-0.02-0.63,0-0.94,0.09c-0.77,0.23-1.36,0.71-1.83,1.35c-0.16,0.22-0.27,0.46-0.32,0.73
		c-0.06,0.29-0.12,0.58-0.19,0.87c-0.01,0.03-0.01,0.06-0.03,0.07c-0.13,0.07-0.27,0.13-0.42,0.2c0.01-0.05,0.01-0.08,0.02-0.11
		c0.01-0.03,0.01-0.06,0.02-0.1c0.1-0.69,0.26-1.36,0.52-2c0.37-0.92,0.99-1.62,1.87-2.09c0.36-0.19,0.75-0.31,1.14-0.42
		c0.1-0.03,0.19-0.07,0.28-0.12c0.03-0.01,0.05-0.06,0.05-0.09c-0.02-0.13-0.08-0.23-0.2-0.29c-0.49-0.23-0.99-0.3-1.52-0.17
		c-0.38,0.1-0.69,0.32-0.96,0.59c-0.34,0.33-0.57,0.73-0.74,1.16c-0.2,0.53-0.4,1.07-0.58,1.61c-0.24,0.73-0.55,1.42-0.99,2.05
		c-0.32,0.45-0.64,0.9-0.96,1.36c-0.2,0.29-0.43,0.55-0.56,0.88c-0.06,0.15-0.13,0.3-0.2,0.44c-0.35,0.76-0.53,1.55-0.5,2.38
		c0.02,0.68,0.21,1.31,0.61,1.86c0.32,0.46,0.74,0.81,1.18,1.14c0.13,0.1,0.28,0.18,0.44,0.25c0.56,0.23,1,0.61,1.36,1.1
		c0.36,0.5,0.54,1.03,0.39,1.65c-0.07,0.29-0.06,0.59,0.08,0.87c0.06,0.12,0.12,0.17,0.25,0.15c0.13-0.02,0.23-0.09,0.3-0.19
		c0.36-0.45,0.5-0.97,0.4-1.53c-0.11-0.68-0.4-1.28-0.86-1.79c-0.02-0.02-0.03-0.04-0.05-0.06c0.2,0.03,0.39,0.05,0.57,0.07
		c0.02,0,0.05,0.03,0.06,0.05c0.35,0.5,0.58,1.06,0.69,1.66c0.03,0.16,0.02,0.16,0.18,0.2c0.27,0.08,0.53,0.17,0.79,0.24
		c0.85,0.24,1.72,0.4,2.6,0.46c0.53,0.04,1.06,0.07,1.59,0.09c0.66,0.02,1.32,0,1.98-0.08c0.47-0.06,0.94-0.12,1.41-0.21
		c1.22-0.22,2.36-0.67,3.44-1.28c0.29-0.17,0.58-0.34,0.8-0.61c0.06-0.08,0.12-0.16,0.18-0.24c0.24-0.3,0.47-0.6,0.72-0.89
		c0.04-0.04,0.11-0.07,0.17-0.07c0.31-0.01,0.62,0.01,0.93,0c0.82-0.03,1.53-0.34,2.14-0.88c0.63-0.56,1.05-1.27,1.28-2.09
		c0.14-0.49,0.13-0.96-0.05-1.44c-0.3-0.84-1.05-1.23-1.75-1.23c-0.65,0-1.23,0.23-1.72,0.65c-0.39,0.33-0.74,0.7-1.06,1.1
		c-0.02,0.03-0.04,0.05-0.06,0.08c-0.01-0.01-0.03-0.01-0.04-0.02c0.02-0.19,0.04-0.39,0.07-0.59c-0.07,0-0.15,0-0.23,0
		C114.71,153.69,114.68,153.56,114.65,153.42z M116.56,141.35c-0.02,0.04-0.04,0.05-0.05,0.07c-0.64,0.75-1.18,1.57-1.71,2.4
		c-0.27,0.43-0.49,0.89-0.61,1.39c-0.03,0.15-0.07,0.31-0.05,0.46c0.02,0.32,0.17,0.58,0.39,0.81c0.37,0.38,0.69,0.79,0.99,1.23
		c0.13,0.18,0.4,0.26,0.59,0.15c0.16-0.08,0.3-0.19,0.41-0.34c0.5-0.69,0.81-1.46,1.03-2.28c0.19-0.73,0.32-1.47,0.38-2.22
		c0.04-0.47,0.05-0.95-0.02-1.42c-0.04-0.33-0.12-0.65-0.31-0.93c-0.21-0.32-0.51-0.48-0.89-0.5c-0.43-0.02-0.83,0.09-1.21,0.28
		c-0.61,0.3-1.17,0.69-1.71,1.11c-0.63,0.5-1.23,1.04-1.73,1.67c-0.14,0.17-0.26,0.36-0.33,0.57c-0.07,0.19,0.01,0.41,0.18,0.51
		c0.62,0.38,1.18,0.83,1.73,1.3c0.02,0.01,0.04,0.03,0.06,0.05c0.01-0.04,0.01-0.07,0.02-0.11c0.05-0.43,0.18-0.83,0.36-1.22
		c0.3-0.64,0.69-1.23,1.13-1.78c0.28-0.36,0.59-0.69,0.94-0.98C116.27,141.48,116.4,141.41,116.56,141.35z M101.85,143.44
		c-0.1-0.22-0.19-0.42-0.29-0.63c-0.43-0.91-0.95-1.76-1.62-2.52c-0.22-0.26-0.48-0.47-0.77-0.66c-0.2-0.13-0.45-0.12-0.62,0.07
		c-0.08,0.09-0.17,0.18-0.25,0.28c-0.27,0.35-0.45,0.74-0.6,1.15c-0.37,1-0.58,2.04-0.68,3.11c-0.06,0.68-0.06,1.36,0.01,2.05
		c0.02,0.16,0.05,0.33,0.08,0.49c0.01,0.08,0.08,0.09,0.14,0.1c0.02,0,0.05-0.03,0.06-0.05c0.27-0.72,0.66-1.37,1.14-1.96
		c0.29-0.36,0.57-0.72,0.95-0.98c0.17-0.11,0.18-0.23,0.15-0.4c-0.11-0.47-0.21-0.95-0.33-1.42c-0.09-0.34-0.19-0.68-0.29-1.02
		c-0.01-0.04-0.02-0.08-0.03-0.15c0.04,0.02,0.07,0.03,0.08,0.05c0.14,0.18,0.3,0.34,0.41,0.53c0.27,0.52,0.39,1.09,0.51,1.66
		c0.03,0.14,0.05,0.27,0.08,0.41C100.6,143.33,101.21,143.31,101.85,143.44z M111.96,148.72c-0.01-0.02-0.02-0.04-0.04-0.06
		c-0.22-0.32-0.45-0.64-0.66-0.97c-0.34-0.55-0.72-1.06-1.18-1.52c-0.68-0.69-1.43-1.29-2.32-1.69c-0.48-0.22-0.97-0.39-1.51-0.4
		c-0.42-0.01-0.83,0.04-1.21,0.23c-0.19,0.09-0.35,0.21-0.45,0.4c-0.03,0.05-0.04,0.11-0.06,0.18c0.05-0.01,0.07-0.01,0.09-0.01
		c0.02,0,0.05-0.01,0.07-0.01c0.52-0.04,1.01,0.08,1.47,0.33c0.54,0.3,1.02,0.69,1.43,1.15c0.68,0.78,1.5,1.36,2.48,1.7
		c0.28,0.1,0.57,0.18,0.86,0.28C111.28,148.46,111.62,148.59,111.96,148.72z M110.37,145.87c0,0.01-0.01,0.01-0.01,0.02
		c0.06,0.05,0.12,0.1,0.17,0.16c0.11,0.11,0.24,0.22,0.34,0.34c0.12,0.15,0.23,0.31,0.34,0.47c0.44,0.65,0.87,1.3,1.32,1.94
		c0.53,0.75,1.08,1.48,1.72,2.14c0.13,0.13,0.26,0.26,0.39,0.39c0.01-0.05,0-0.09-0.01-0.12c-0.09-0.34-0.14-0.68-0.11-1.03
		c0.03-0.27,0.07-0.53,0.11-0.8c0.05-0.36,0.13-0.72,0.12-1.09c-0.02-0.43-0.11-0.85-0.37-1.21c-0.14-0.2-0.27-0.41-0.49-0.54
		c-0.16-0.09-0.32-0.17-0.49-0.24c-0.3-0.12-0.61-0.17-0.92-0.2c-0.34-0.03-0.68-0.06-1.02-0.09c-0.24-0.02-0.48-0.05-0.73-0.08
		C110.6,145.91,110.48,145.89,110.37,145.87z M113.43,141.34c-0.11-0.06-0.21-0.11-0.3-0.16c-0.45-0.27-0.94-0.44-1.44-0.56
		c-0.8-0.19-1.62-0.24-2.44-0.13c-0.39,0.05-0.77,0.12-1.14,0.25c-0.46,0.15-0.85,0.4-1.18,0.75c-0.07,0.07-0.12,0.15-0.1,0.26
		c0.01,0.06,0.03,0.08,0.1,0.06c0.38-0.11,0.77-0.16,1.17-0.18c0.77-0.05,1.51,0.06,2.23,0.33c0.46,0.18,0.91,0.39,1.36,0.59
		c0.1,0.04,0.18,0.12,0.27,0.18C112.4,142.23,112.9,141.78,113.43,141.34z M103.13,144.69c-0.09-0.15-0.19-0.28-0.34-0.38
		c-0.61-0.4-1.27-0.6-2-0.52c-0.45,0.05-0.86,0.2-1.21,0.48c-0.3,0.24-0.55,0.54-0.79,0.84c-0.28,0.35-0.54,0.71-0.71,1.12
		c-0.25,0.62-0.32,1.25-0.17,1.91c0.1,0.46,0.18,0.92,0.27,1.38c0,0,0.01,0,0.02,0.01c0.01-0.02,0.02-0.03,0.03-0.05
		c0.22-0.35,0.35-0.74,0.49-1.12c0.22-0.63,0.43-1.26,0.68-1.87c0.24-0.61,0.6-1.15,1.14-1.56c0.54-0.42,1.15-0.56,1.82-0.47
		C102.61,144.51,102.87,144.58,103.13,144.69z M108.62,148.52c-0.02-0.03-0.03-0.06-0.04-0.08c-0.26-0.46-0.55-0.9-0.87-1.32
		c-0.44-0.57-0.94-1.08-1.56-1.46c-0.43-0.26-0.88-0.43-1.39-0.39c-0.16,0.01-0.32,0.05-0.44,0.17c-0.17,0.18-0.21,0.53-0.09,0.75
		c0.09,0.16,0.18,0.32,0.28,0.48c0.35,0.56,0.81,0.99,1.43,1.25c0.45,0.19,0.92,0.24,1.4,0.28c0.31,0.02,0.62,0.05,0.92,0.16
		C108.37,148.41,108.48,148.46,108.62,148.52z M116,158.67c0,0-0.01,0-0.02,0c-0.2,0-0.41,0-0.61,0c-0.05,0-0.08,0.02-0.11,0.06
		c-0.07,0.09-0.13,0.17-0.2,0.25c-0.3,0.36-0.56,0.74-0.74,1.17c-0.25,0.58-0.32,1.19-0.2,1.81c0.09,0.48,0.34,0.86,0.79,1.09
		c0.22,0.12,0.46,0.17,0.72,0.12c0.31-0.06,0.65-0.42,0.57-0.82c-0.06-0.26-0.16-0.5-0.33-0.71c-0.1-0.12-0.21-0.24-0.31-0.36
		c-0.2-0.25-0.29-0.54-0.27-0.86c0.01-0.38,0.12-0.74,0.3-1.07C115.7,159.11,115.86,158.89,116,158.67z M117.06,147.53
		c-0.01,0.01-0.02,0.01-0.02,0.02c-0.04,0.05-0.07,0.11-0.11,0.16c-0.25,0.41-0.4,0.84-0.39,1.32c0,0.32,0.11,0.62,0.24,0.91
		c0.24,0.58,0.47,1.16,0.59,1.78c0,0.02,0.01,0.04,0.02,0.06c0.18,0.2,0.35,0.27,0.55,0.07c0.11-0.11,0.21-0.25,0.28-0.39
		c0.21-0.41,0.35-0.86,0.41-1.32c0.03-0.24,0.04-0.48,0-0.71c-0.04-0.27-0.2-0.47-0.41-0.63c-0.19-0.14-0.37-0.27-0.56-0.41
		c-0.28-0.21-0.5-0.47-0.58-0.82C117.07,147.55,117.07,147.54,117.06,147.53z M113.28,145.84c0.01,0,0.01-0.01,0.02-0.01
		c-0.02-0.01-0.04-0.02-0.05-0.03c-0.54-0.45-1.09-0.88-1.7-1.23c-0.45-0.25-0.9-0.49-1.36-0.72c-0.35-0.18-0.71-0.3-1.11-0.33
		c-0.25-0.02-0.49,0.02-0.71,0.16c-0.2,0.13-0.4,0.23-0.63,0.3c-0.02,0.01-0.04,0.02-0.08,0.03c0.04,0.02,0.06,0.03,0.09,0.04
		c0.46,0.21,0.91,0.44,1.32,0.74c0.26,0.19,0.51,0.37,0.8,0.51c0.12,0.06,0.25,0.12,0.38,0.15c0.58,0.14,1.18,0.17,1.78,0.22
		c0.25,0.02,0.49,0.05,0.74,0.08C112.95,145.76,113.12,145.8,113.28,145.84z M115.1,147.8c0.02,0.15,0.04,0.28,0.05,0.42
		c0.03,0.38-0.03,0.76-0.09,1.13c-0.06,0.35-0.13,0.69-0.12,1.05c0.01,0.36,0.07,0.7,0.21,1.03c0.11,0.28,0.33,0.46,0.54,0.65
		c0.21,0.2,0.47,0.3,0.76,0.31c0.31,0.01,0.57-0.28,0.51-0.59c-0.02-0.12-0.05-0.24-0.08-0.36c-0.36-1.3-0.95-2.49-1.72-3.59
		C115.14,147.83,115.12,147.82,115.1,147.8z M110.03,142.29c-0.02-0.01-0.03-0.02-0.04-0.02c-0.02-0.01-0.03-0.01-0.05-0.02
		c-0.77-0.25-1.56-0.29-2.35-0.18c-0.59,0.08-1.14,0.26-1.64,0.59c-0.27,0.18-0.52,0.39-0.71,0.66c-0.11,0.16-0.18,0.33-0.2,0.52
		c0.01,0,0.02,0.01,0.02,0.01c0.02,0,0.04-0.01,0.05-0.02c0.47-0.17,0.95-0.19,1.44-0.15c0.23,0.02,0.46,0.04,0.68,0
		c0.33-0.06,0.64-0.18,0.92-0.37c0.25-0.18,0.5-0.36,0.76-0.52C109.26,142.59,109.62,142.4,110.03,142.29z M118.62,157.64
		c-0.26,0.23-0.54,0.41-0.84,0.58c-0.02,0.01-0.04,0.05-0.04,0.07c0.01,0.18,0.01,0.36,0.04,0.54c0.07,0.52,0.36,0.9,0.77,1.21
		c0.26,0.19,0.52,0.37,0.77,0.57c0.12,0.1,0.22,0.13,0.36,0.1c0.46-0.08,0.84-0.3,1.13-0.67c0.1-0.14,0.15-0.29,0.13-0.47
		c-0.02-0.27-0.2-0.49-0.48-0.51c-0.24-0.02-0.49,0-0.74,0.02c-0.28,0.02-0.54,0-0.75-0.22c-0.18-0.2-0.27-0.44-0.31-0.7
		C118.65,158,118.64,157.83,118.62,157.64z M101.69,142.13c0.01,0.02,0.01,0.03,0.02,0.04c0.22,0.45,0.46,0.89,0.58,1.38
		c0.01,0.02,0.04,0.05,0.07,0.06c0.3,0.13,0.59,0.3,0.86,0.49c0.09,0.06,0.18,0.12,0.27,0.17c0.13,0.06,0.27,0.12,0.41,0.09
		c0.18-0.03,0.29-0.16,0.36-0.31c0.21-0.42,0.21-0.83-0.05-1.23c-0.42-0.63-1.02-0.93-1.77-0.93
		C102.17,141.9,101.92,141.99,101.69,142.13z M96.7,158.75c0,0.01-0.01,0.01-0.01,0.02c0.04,0.03,0.07,0.06,0.11,0.09
		c0.43,0.37,0.84,0.75,1.15,1.24c0.35,0.54,0.5,1.13,0.42,1.77c-0.02,0.12,0,0.25,0.02,0.38c0.02,0.11,0.11,0.18,0.22,0.19
		c0.13,0.01,0.25-0.01,0.36-0.09c0.25-0.18,0.44-0.4,0.49-0.71c0.02-0.11,0.03-0.22,0.05-0.32c0.1-0.38,0.01-0.75-0.17-1.08
		c-0.35-0.65-0.88-1.12-1.61-1.3C97.41,158.86,97.05,158.81,96.7,158.75z M116.34,158.96c-0.01-0.01-0.02-0.01-0.03-0.02
		c-0.01,0.02-0.02,0.04-0.04,0.06c-0.22,0.27-0.39,0.57-0.5,0.91c-0.07,0.21-0.11,0.43-0.09,0.65c0.01,0.2,0.1,0.36,0.22,0.51
		c0.15,0.18,0.31,0.36,0.44,0.56c0.17,0.27,0.27,0.57,0.25,0.89c-0.01,0.11,0.02,0.18,0.1,0.24c0.4,0.36,0.96,0.35,1.35,0.1
		c0.18-0.12,0.23-0.28,0.17-0.48c-0.02-0.08-0.06-0.15-0.11-0.22c-0.08-0.1-0.17-0.18-0.26-0.26c-0.17-0.14-0.34-0.27-0.51-0.4
		c-0.61-0.48-0.91-1.13-0.98-1.88C116.32,159.4,116.34,159.18,116.34,158.96z M117.36,158.43c-0.18,0.05-0.36,0.09-0.53,0.14
		c-0.02,0.01-0.05,0.04-0.05,0.07c-0.02,0.12-0.04,0.25-0.05,0.37c-0.06,0.86,0.15,1.61,0.85,2.18c0.26,0.21,0.51,0.42,0.76,0.64
		c0.01,0.01,0.03,0.02,0.05,0.03c0.24,0.09,0.48,0.09,0.7-0.07c0.27-0.19,0.32-0.42,0.14-0.66c-0.06-0.08-0.14-0.16-0.22-0.22
		c-0.25-0.19-0.51-0.37-0.76-0.56c-0.42-0.32-0.73-0.73-0.85-1.26C117.36,158.86,117.34,158.65,117.36,158.43z M103.16,141.56
		c0.01,0.01,0.01,0.01,0.02,0.01c0.02,0.01,0.04,0.01,0.05,0.02c0.56,0.18,1.02,0.51,1.33,1.02c0.09,0.14,0.27,0.19,0.39,0.13
		c0.13-0.07,0.26-0.14,0.37-0.23c0.15-0.13,0.29-0.28,0.42-0.43c0.13-0.14,0.22-0.29,0.28-0.47c0.1-0.31-0.03-0.56-0.33-0.66
		c-0.04-0.01-0.08-0.03-0.12-0.03c-0.33-0.07-0.67-0.06-1-0.01c-0.36,0.05-0.7,0.15-1.02,0.33
		C103.39,141.31,103.26,141.42,103.16,141.56z M106.47,150.02c-1.14-1.05-1.97-2.33-2.69-3.68c-0.08,0.04-0.12,0.12-0.15,0.21
		c-0.04,0.13-0.02,0.25,0.01,0.38c0.18,0.81,0.54,1.54,1.1,2.16C105.19,149.61,105.78,149.9,106.47,150.02z M95.59,154.4
		c-0.01,0.02-0.03,0.05-0.03,0.07c-0.07,0.25-0.15,0.5-0.22,0.75c-0.14,0.54-0.16,1.09-0.03,1.64c0.06,0.23,0.1,0.47,0.24,0.67
		c0.28,0.42,0.68,0.69,1.17,0.8c0.11,0.03,0.23,0.04,0.35,0.06c0-0.01,0.01-0.01,0.01-0.02C95.78,157.35,95.37,156,95.59,154.4z
		 M96.96,151.3c0.01,0,0.01,0.01,0.02,0.01c0.01-0.01,0.02-0.02,0.03-0.04c0.14-0.19,0.28-0.38,0.41-0.57
		c0.29-0.42,0.41-0.88,0.31-1.39c-0.09-0.45-0.19-0.9-0.28-1.35c0-0.01-0.01-0.02-0.03-0.05C97.1,149.02,96.9,150.14,96.96,151.3z
		 M111.12,143.85c0.2-0.28,0.39-0.56,0.58-0.83c-0.42-0.25-0.85-0.47-1.37-0.38c-0.38,0.06-0.72,0.21-1.05,0.42
		C109.95,143.25,110.54,143.55,111.12,143.85z M96.94,161.89c0.08-0.01,0.18-0.02,0.26-0.04c0.31-0.08,0.58-0.22,0.73-0.52
		c0.02-0.04,0.03-0.08,0.02-0.12c-0.06-0.35-0.2-0.66-0.4-0.95c-0.09-0.13-0.18-0.13-0.27,0c-0.01,0.01-0.02,0.02-0.02,0.03
		c-0.19,0.29-0.38,0.58-0.57,0.88c-0.08,0.13-0.15,0.27-0.16,0.44c0,0.14,0.07,0.24,0.21,0.27
		C96.8,161.88,96.87,161.88,96.94,161.89z M113.81,160.29c-0.01,0-0.02,0-0.02,0c-0.32,0.17-0.64,0.34-0.96,0.51
		c-0.02,0.01-0.03,0.04-0.03,0.06c0.02,0.29,0.04,0.58,0.16,0.86c0.13,0.3,0.29,0.57,0.59,0.73c0.11,0.06,0.23,0.09,0.36,0.14
		C113.58,161.83,113.6,161.07,113.81,160.29z M117.43,147.22c0,0.06,0.01,0.13,0.01,0.19c0,0.03,0.01,0.05,0.02,0.08
		c0.13,0.38,0.41,0.61,0.76,0.78c0.03,0.01,0.06,0.02,0.09,0.03c0.07,0.01,0.11-0.01,0.1-0.08c-0.01-0.09-0.02-0.19-0.05-0.27
		c-0.18-0.39-0.37-0.77-0.56-1.16c-0.03-0.05-0.08-0.09-0.12-0.13c-0.01-0.01-0.05-0.01-0.06,0c-0.06,0.09-0.12,0.17-0.16,0.27
		C117.44,147.01,117.45,147.12,117.43,147.22z M100.73,147.35c0.01,0,0.02,0,0.02,0c0.02-0.01,0.03-0.02,0.05-0.03
		c0.51-0.39,1.09-0.64,1.74-0.7c0.16-0.02,0.32-0.05,0.46-0.14c0.07-0.05,0.13-0.12,0.15-0.21c0.03-0.17-0.08-0.29-0.25-0.25
		c-0.56,0.12-1.06,0.35-1.51,0.7C101.14,146.9,100.93,147.11,100.73,147.35z M118.31,152.11c0.06-0.01,0.1-0.01,0.14-0.01
		c0.28-0.03,0.63-0.25,0.68-0.64c0.05-0.36,0.04-0.71,0-1.06c-0.01-0.05-0.01-0.1-0.02-0.15c-0.01,0-0.02,0-0.03-0.01
		c-0.02,0.07-0.05,0.13-0.07,0.2C118.89,151.03,118.71,151.6,118.31,152.11z"/>
	<path class="st0" d="M110.77,163.06c0.19-0.04,0.38-0.09,0.56-0.13c-0.02-0.12-0.05-0.24-0.07-0.36c-0.01-0.07-0.02-0.14-0.01-0.21
		c0.02-0.12,0.12-0.2,0.24-0.21c0.11-0.01,0.23,0.06,0.27,0.17c0.04,0.13,0.06,0.26,0.1,0.39c0.09,0.35,0.18,0.7,0.27,1.05
		c0.01,0.03,0.02,0.07,0.02,0.1c0.02,0.14-0.06,0.26-0.19,0.3c-0.13,0.04-0.26-0.02-0.31-0.16c-0.05-0.13-0.08-0.26-0.12-0.4
		c-0.01-0.05-0.03-0.09-0.04-0.15c-0.2,0.04-0.39,0.08-0.59,0.13c0.03,0.14,0.07,0.27,0.1,0.41c0.02,0.1,0.02,0.2-0.05,0.28
		c-0.14,0.16-0.39,0.1-0.46-0.11c-0.04-0.13-0.07-0.27-0.11-0.41c-0.09-0.35-0.17-0.7-0.26-1.06c-0.01-0.04-0.01-0.08-0.02-0.12
		c0-0.14,0.08-0.25,0.21-0.27c0.12-0.02,0.24,0.04,0.29,0.17c0.03,0.07,0.04,0.14,0.06,0.21
		C110.71,162.81,110.74,162.93,110.77,163.06z"/>
	<path class="st0" d="M103.87,163.66c0.01-0.42,0.2-0.74,0.51-0.96c0.52-0.38,1.25-0.03,1.34,0.62c0.05,0.39-0.03,0.74-0.32,1.01
		c-0.24,0.23-0.53,0.34-0.87,0.24c-0.36-0.11-0.56-0.37-0.63-0.73C103.87,163.78,103.87,163.71,103.87,163.66z M105.19,163.52
		c0.01,0,0.01,0,0.02-0.01c-0.03-0.1-0.05-0.2-0.09-0.29c-0.09-0.16-0.34-0.19-0.47-0.07c-0.11,0.1-0.19,0.22-0.23,0.37
		c-0.04,0.15-0.01,0.29,0.08,0.42c0.09,0.12,0.22,0.16,0.36,0.11C105.07,163.98,105.19,163.79,105.19,163.52z"/>
	<path class="st0" d="M109.36,163.7c0.19,0.11,0.34,0.26,0.47,0.42c0.09,0.11,0.09,0.25,0.02,0.35c-0.1,0.13-0.29,0.14-0.42,0
		c-0.14-0.17-0.31-0.3-0.49-0.42c-0.02-0.01-0.03-0.02-0.07-0.04c0.02,0.11,0.04,0.21,0.05,0.31c0.02,0.13-0.05,0.25-0.16,0.3
		c-0.1,0.04-0.24,0.01-0.3-0.08c-0.04-0.05-0.06-0.12-0.07-0.18c-0.04-0.29-0.07-0.58-0.1-0.87c-0.01-0.12-0.01-0.25-0.04-0.37
		c-0.08-0.36,0.25-0.59,0.52-0.61c0.25-0.01,0.47,0.07,0.65,0.24c0.24,0.24,0.24,0.62,0,0.9
		C109.41,163.65,109.39,163.67,109.36,163.7z M108.82,163.37c0.06-0.02,0.13-0.03,0.17-0.07c0.04-0.03,0.08-0.09,0.08-0.14
		c0-0.03-0.05-0.08-0.09-0.1c-0.05-0.03-0.11-0.03-0.18-0.05C108.81,163.14,108.81,163.24,108.82,163.37z"/>
	<path class="st0" d="M102.52,162.82c0.21-0.11,0.4-0.21,0.59-0.32c0.12-0.07,0.25-0.06,0.34,0.01c0.13,0.11,0.13,0.3-0.01,0.4
		c-0.06,0.05-0.14,0.09-0.21,0.13c-0.14,0.08-0.28,0.15-0.43,0.23c0.09,0.11,0.17,0.22,0.25,0.33c0.06,0.08,0.13,0.16,0.19,0.25
		c0.1,0.14,0.08,0.29-0.03,0.39c-0.11,0.09-0.28,0.08-0.38-0.05c-0.14-0.16-0.26-0.33-0.39-0.5c-0.01-0.02-0.02-0.03-0.04-0.06
		c-0.02,0.14-0.04,0.27-0.06,0.39c-0.01,0.04-0.01,0.07-0.03,0.11c-0.05,0.12-0.19,0.19-0.31,0.15c-0.13-0.03-0.21-0.17-0.19-0.31
		c0.05-0.39,0.1-0.78,0.16-1.17c0.02-0.14,0.06-0.29,0.1-0.42c0.04-0.13,0.17-0.21,0.29-0.19c0.13,0.02,0.23,0.13,0.22,0.27
		c0,0.09-0.03,0.18-0.04,0.27C102.52,162.76,102.52,162.78,102.52,162.82z"/>
	<path class="st0" d="M107.21,163.24c-0.01,0.24-0.02,0.47-0.03,0.7c-0.01,0.14-0.01,0.29-0.02,0.43c-0.01,0.15-0.11,0.27-0.25,0.27
		c-0.14,0.01-0.25-0.08-0.28-0.23c-0.01-0.06-0.01-0.11-0.01-0.17c0.01-0.33,0.02-0.66,0.03-1c-0.02,0-0.04,0-0.07,0
		c-0.13,0-0.26,0-0.39-0.01c-0.14-0.01-0.24-0.12-0.24-0.25c0-0.13,0.08-0.25,0.22-0.27c0.14-0.02,0.28-0.02,0.41-0.02
		c0.33,0.01,0.66,0.02,0.98,0.03c0.1,0,0.18,0.03,0.24,0.11c0.12,0.17,0.01,0.39-0.19,0.41c-0.1,0.01-0.21,0-0.32,0
		C107.27,163.24,107.24,163.24,107.21,163.24z"/>
	<path class="st0" d="M105.31,153.65c0.31-0.07,0.62-0.06,0.93,0.07c0.01-0.03,0.02-0.05,0.02-0.07c0.28-1.16,0.92-2.08,1.95-2.71
		c0.53-0.33,1.12-0.52,1.74-0.57c1.72-0.12,3.06,0.57,4.03,1.98c0.43,0.62,0.65,1.32,0.73,2.07c0.19,1.94-0.99,3.81-2.81,4.47
		c-0.59,0.21-1.19,0.31-1.82,0.23c-1.65-0.21-2.81-1.09-3.52-2.58c-0.33-0.7-0.45-1.45-0.4-2.22c0.01-0.19,0.01-0.18-0.16-0.25
		c-0.21-0.08-0.41-0.07-0.62-0.02c-0.06,0.01-0.06,0.05-0.06,0.1c-0.02,0.54-0.11,1.08-0.3,1.59c-0.24,0.64-0.55,1.25-1.04,1.75
		c-0.81,0.82-1.78,1.26-2.93,1.26c-0.38,0-0.75-0.04-1.11-0.16c-0.75-0.24-1.4-0.64-1.92-1.24c-0.8-0.91-1.14-1.99-1.07-3.19
		c0.11-1.84,1.34-3.43,3.08-4.01c0.57-0.19,1.16-0.27,1.76-0.21c1.69,0.16,3,1.27,3.41,2.97
		C105.23,153.15,105.26,153.4,105.31,153.65z M106.55,154.61c0,0.04,0,0.07,0,0.1c0.01,0.69,0.17,1.35,0.51,1.94
		c0.68,1.18,1.7,1.88,3.06,2.04c0.62,0.07,1.22-0.03,1.79-0.28c1.62-0.69,2.59-2.4,2.33-4.19c-0.12-0.83-0.46-1.56-1.04-2.18
		c-0.91-0.96-2.03-1.39-3.35-1.25c-0.7,0.08-1.32,0.35-1.86,0.79c-0.75,0.6-1.2,1.39-1.38,2.33c-0.01,0.03,0.01,0.07,0.03,0.1
		c0.07,0.1,0.15,0.2,0.22,0.3c0.04,0.06,0.05,0.14,0.01,0.21C106.82,154.64,106.71,154.68,106.55,154.61z M98.78,152.81
		c-0.05,0-0.09-0.01-0.13-0.01c-0.28-0.01-0.57-0.02-0.85-0.03c-0.07,0-0.1,0.01-0.13,0.08c-0.19,0.47-0.31,0.95-0.33,1.45
		c-0.04,1.1,0.29,2.07,1.04,2.86c0.94,0.99,2.1,1.38,3.44,1.1c0.96-0.2,1.71-0.75,2.27-1.55c0.42-0.6,0.67-1.26,0.77-1.98
		c0.02-0.13,0.03-0.26,0.04-0.4c-0.01,0-0.01,0-0.02-0.01c-0.02,0.03-0.04,0.05-0.06,0.08c-0.06,0.08-0.15,0.1-0.22,0.07
		c-0.07-0.04-0.11-0.12-0.08-0.22c0.01-0.04,0.02-0.07,0.04-0.11c0.06-0.12,0.16-0.22,0.28-0.29c0.05-0.03,0.07-0.06,0.06-0.12
		c-0.01-0.1-0.02-0.21-0.03-0.32c-0.1-0.69-0.34-1.33-0.81-1.86c-0.85-0.98-1.94-1.35-3.2-1.18c-1.26,0.17-2.21,0.83-2.9,1.89
		c-0.02,0.03-0.03,0.05-0.05,0.09c0.02,0,0.03,0.01,0.04,0.01c0.31,0.01,0.62,0.02,0.93,0.04c0.06,0,0.07-0.03,0.07-0.07
		c0.05-0.31,0.11-0.63,0.16-0.94c0.01-0.04,0.01-0.09,0.03-0.11c0.14-0.11,0.28-0.21,0.43-0.32c0.01,0,0.01,0.01,0.02,0.01
		c-0.16,0.92-0.31,1.84-0.47,2.77c-0.13-0.1-0.25-0.19-0.37-0.28c-0.3,0.34-0.57,0.68-0.56,1.16c0.01,0.33,0.1,0.64,0.27,0.92
		c0.07-0.5,0.13-1,0.2-1.5c0.11,0.18,0.22,0.35,0.32,0.52c0.01,0.02,0.02,0.04,0.02,0.06c-0.01,0.09-0.03,0.18-0.04,0.27
		c-0.03,0.24-0.06,0.49-0.09,0.73c-0.03,0.25-0.05,0.49-0.07,0.74c-0.02,0.27-0.04,0.55-0.07,0.83c0,0.03,0,0.06,0,0.09
		c-0.01,0.01-0.02,0.01-0.03,0.02c-0.12-0.12-0.23-0.23-0.35-0.35c-0.01-0.01-0.01-0.05-0.01-0.07c0.01-0.14,0.02-0.28,0.03-0.42
		c0.01-0.12,0.01-0.23-0.07-0.34c-0.07-0.1-0.13-0.21-0.19-0.32c-0.12-0.22-0.22-0.44-0.28-0.68c-0.14-0.58-0.05-1.11,0.32-1.59
		c0.06-0.08,0.13-0.16,0.19-0.24C98.5,153.13,98.63,152.98,98.78,152.81z"/>
	<path class="st0" d="M119.13,154.31c-0.72-0.11-1.38,0.03-1.98,0.45c-0.28,0.2-0.54,0.42-0.76,0.7c0.09,0.01,0.18,0.02,0.26,0.04
		c0.55,0.12,0.82,0.66,0.59,1.18c-0.26,0.59-0.91,0.73-1.38,0.59c-0.01,0-0.02-0.01-0.05-0.02c0.04-0.02,0.07-0.03,0.1-0.05
		c0.24-0.1,0.48-0.21,0.68-0.37c0.16-0.13,0.29-0.29,0.31-0.51c0.02-0.21-0.09-0.36-0.29-0.41c-0.09-0.02-0.2-0.03-0.29-0.01
		c-0.21,0.05-0.41,0.13-0.62,0.2c-0.03,0.01-0.06,0.01-0.09,0.01c0-0.03-0.01-0.06-0.01-0.09c0.06-0.32,0.24-0.58,0.44-0.83
		c0.33-0.4,0.72-0.75,1.18-0.99c0.39-0.21,0.8-0.32,1.24-0.28c0.2,0.02,0.38,0.07,0.54,0.2c0.05,0.04,0.09,0.1,0.13,0.15
		C119.14,154.29,119.14,154.3,119.13,154.31z"/>
	<path class="st0" d="M106.91,158.57c-0.03,0.07-0.04,0.16-0.09,0.22c-0.31,0.47-0.75,0.69-1.31,0.67c-0.4-0.02-0.74-0.16-1.01-0.45
		c-0.1-0.11-0.18-0.23-0.24-0.39c0.05,0.02,0.09,0.04,0.12,0.05c0.3,0.13,0.6,0.26,0.92,0.32c0.36,0.07,0.69,0.02,1.01-0.15
		c0.18-0.1,0.37-0.19,0.55-0.28c0.01-0.01,0.02-0.01,0.04-0.01C106.89,158.56,106.9,158.57,106.91,158.57z"/>
	<path class="st0" d="M102.98,150.11c0.27-0.17,0.55-0.29,0.86-0.32c0.03,0,0.07,0,0.1-0.01c0.34-0.09,0.65,0.17,0.76,0.42
		c0.18,0.41,0.06,0.91-0.11,1.19c-0.08-0.1-0.17-0.2-0.25-0.3c-0.01-0.02,0-0.06,0-0.08c0.06-0.19,0.07-0.39,0-0.58
		c-0.07-0.19-0.21-0.28-0.41-0.25c-0.16,0.03-0.31,0.08-0.47,0.12c-0.03,0.01-0.06,0.02-0.08,0.01
		C103.25,150.24,103.12,150.17,102.98,150.11z"/>
	<path class="st0" d="M107.11,151.71c-0.09,0.11-0.17,0.21-0.25,0.31c-0.34-0.19-0.67-1.08-0.54-1.45c0.12,0.03,0.24,0.06,0.37,0.09
		C106.65,151.08,106.87,151.4,107.11,151.71z"/>
	<path class="st0" d="M105.01,156.02c-0.03,0.49-0.13,0.97-0.26,1.44c-0.01,0-0.02,0-0.03,0c-0.02-0.05-0.05-0.09-0.07-0.14
		c-0.05-0.1-0.13-0.21-0.12-0.31c0-0.1,0.1-0.2,0.15-0.3c0.1-0.21,0.21-0.42,0.31-0.64C105,156.06,105.01,156.04,105.01,156.02z"/>
	<path class="st0" d="M108.38,151.49c0.14-0.07,0.26-0.13,0.38-0.19c0.03-0.01,0.07,0.01,0.1,0.02c0.4,0.25,0.78,0.52,1.19,0.77
		c0.64,0.38,1.32,0.69,2.01,0.95c0.01,0.01,0.03,0.01,0.05,0.01c-0.81-0.59-1.49-1.29-2.09-2.12c0.1,0,0.18,0,0.27,0
		c0.26,0.01,0.25,0.02,0.41,0.21c0.66,0.82,1.45,1.49,2.36,2.02c0.23,0.13,0.46,0.24,0.73,0.23c0.05,0,0.08,0.02,0.1,0.07
		c0.04,0.12,0.08,0.23,0.11,0.35c-0.01,0.01-0.01,0.02-0.02,0.03c-0.17-0.02-0.34-0.03-0.51-0.05c-0.48-0.06-0.96-0.14-1.42-0.31
		c-0.99-0.36-1.94-0.81-2.82-1.4c-0.26-0.17-0.52-0.35-0.78-0.53C108.43,151.53,108.41,151.52,108.38,151.49z"/>
	<path class="st0" d="M112.48,154.98c-0.03,0.04-0.06,0.07-0.1,0.11c-0.18,0.19-0.37,0.38-0.55,0.57c-0.02,0.02-0.03,0.04-0.03,0.06
		c-0.04,0.24-0.08,0.49-0.12,0.73c0,0.02-0.01,0.04-0.01,0.08c-0.03-0.03-0.06-0.04-0.08-0.06c-0.16-0.15-0.32-0.3-0.48-0.45
		c-0.05-0.05-0.1-0.05-0.18-0.03c-0.18,0.05-0.36,0.08-0.54,0.1c-0.08,0.01-0.14,0.04-0.18,0.11c-0.1,0.21-0.21,0.41-0.32,0.61
		c-0.02,0.03-0.03,0.06-0.06,0.11c-0.03-0.04-0.05-0.06-0.06-0.09c-0.14-0.25-0.27-0.49-0.4-0.74c-0.02-0.04-0.05-0.06-0.1-0.07
		c-0.19-0.04-0.38-0.1-0.57-0.14c-0.04-0.01-0.08-0.01-0.11,0.01c-0.18,0.11-0.36,0.22-0.53,0.33c-0.02,0.02-0.05,0.03-0.08,0.06
		c-0.01-0.04-0.02-0.07-0.03-0.1c-0.04-0.22-0.08-0.44-0.13-0.65c-0.01-0.06-0.04-0.12-0.07-0.18c-0.13-0.23-0.27-0.47-0.41-0.7
		c-0.02-0.03-0.03-0.07-0.03-0.12c0.04,0.03,0.07,0.05,0.11,0.08c0.32,0.22,0.63,0.46,0.97,0.65c0.94,0.53,1.92,0.56,2.93,0.18
		c0.36-0.14,0.72-0.28,1.07-0.42c0.03-0.01,0.05-0.02,0.08-0.03C112.48,154.97,112.48,154.97,112.48,154.98z"/>
	<path class="st0" d="M108.8,151.93c0.11,0.08,0.22,0.16,0.32,0.23c-0.36,0.52-1.13,0.62-1.74,0.26c0.08-0.1,0.16-0.21,0.24-0.3
		c0.01-0.01,0.05,0,0.08,0.01c0.22,0.09,0.45,0.13,0.69,0.07C108.56,152.15,108.69,152.05,108.8,151.93z"/>
	<path class="st0" d="M99.29,155.81c0.02-0.23,0.03-0.44,0.05-0.65c0.01-0.12,0.03-0.24,0.04-0.36c0-0.02-0.02-0.06-0.04-0.07
		c-0.13-0.1-0.22-0.21-0.29-0.36c-0.1-0.21-0.2-0.42-0.3-0.63c-0.01-0.02-0.02-0.05-0.02-0.08c0.01,0,0.02,0,0.02,0
		c0.24,0.21,0.49,0.4,0.71,0.62c0.51,0.51,1.1,0.86,1.82,0.97c0.34,0.05,0.68,0.04,1.02-0.01c0.32-0.05,0.61-0.19,0.91-0.31
		c0.23-0.09,0.46-0.19,0.68-0.28c0.02-0.01,0.04-0.02,0.07-0.03c-0.01,0.02-0.01,0.03-0.02,0.04c-0.29,0.33-0.61,0.62-1,0.82
		c-0.02,0.01-0.04,0.04-0.05,0.06c-0.08,0.26-0.16,0.52-0.25,0.78c-0.01,0.03-0.02,0.06-0.04,0.11c-0.03-0.03-0.05-0.05-0.07-0.07
		c-0.15-0.21-0.3-0.42-0.45-0.63c-0.02-0.02-0.06-0.04-0.09-0.04c-0.19-0.01-0.38-0.01-0.56-0.01c-0.03,0-0.08,0.02-0.1,0.05
		c-0.15,0.22-0.29,0.45-0.44,0.67c-0.02,0.03-0.05,0.06-0.08,0.09c-0.02-0.04-0.04-0.07-0.05-0.11c-0.08-0.28-0.15-0.57-0.22-0.85
		c-0.01-0.02-0.03-0.05-0.05-0.06c-0.11-0.06-0.23-0.11-0.34-0.16c-0.02-0.01-0.06,0-0.09,0.01c-0.24,0.15-0.48,0.3-0.71,0.45
		C99.34,155.79,99.33,155.8,99.29,155.81z"/>
	<path class="st0" d="M102.75,150.77c-0.06,0.08-0.12,0.14-0.17,0.21c-0.17,0.24-0.29,0.51-0.19,0.81c0.04,0.11,0.11,0.23,0.19,0.32
		c0.13,0.15,0.32,0.16,0.5,0.11c0.28-0.09,0.51-0.25,0.72-0.45c0.05-0.05,0.1-0.11,0.16-0.17c0.07,0.12,0.13,0.22,0.19,0.32
		c0.01,0.01,0,0.05-0.01,0.06c-0.3,0.3-0.64,0.56-1.07,0.66c-0.36,0.08-0.66-0.03-0.87-0.33c-0.31-0.42-0.31-0.87-0.08-1.32
		c0.06-0.12,0.15-0.23,0.22-0.34c0.03-0.04,0.05-0.04,0.1-0.02C102.54,150.68,102.64,150.72,102.75,150.77z"/>
</g>
<circle class="st0" cx="16.09" cy="16.13" r="15.91"/>
<g>
	<path d="M4.28,24c0.05,0.09,0.09,0.18,0.14,0.26c0.38,0.59,0.81,1.13,1.3,1.63c0.23,0.23,0.48,0.41,0.77,0.56
		c0.17,0.09,0.33,0.19,0.5,0.29c0.76,0.47,1.57,0.8,2.44,1.01c0.51,0.13,1.01,0.25,1.52,0.36c0.61,0.13,1.24,0.18,1.87,0.18
		c0.43,0,0.86-0.02,1.29-0.04c0.45-0.02,0.9-0.04,1.34-0.1c0.74-0.09,1.46-0.31,2.16-0.57c0.29-0.11,0.58-0.22,0.87-0.33
		c0.07-0.03,0.14-0.06,0.21-0.08c0.02-0.01,0.05,0,0.06,0.01c0.14,0.08,0.28,0.16,0.44,0.26c-0.09,0.05-0.15,0.1-0.23,0.13
		c-0.25,0.11-0.51,0.2-0.75,0.32c-0.4,0.21-0.84,0.29-1.27,0.38c-0.94,0.21-1.89,0.32-2.85,0.38c-0.4,0.02-0.8,0.08-1.2,0.11
		c-0.19,0.01-0.39-0.02-0.58-0.03c-0.8-0.05-1.58-0.19-2.35-0.4c-0.44-0.12-0.88-0.21-1.31-0.35c-0.36-0.12-0.71-0.3-1.05-0.47
		c-0.63-0.31-1.27-0.61-1.82-1.05c-0.28-0.22-0.52-0.5-0.78-0.74c-0.4-0.37-0.72-0.81-1.02-1.26c-0.34-0.52-0.55-1.1-0.68-1.71
		c-0.05-0.22-0.04-0.44-0.05-0.67c-0.02-0.4-0.04-0.81-0.06-1.21c-0.03-0.83,0.12-1.63,0.38-2.42c0.15-0.48,0.32-0.95,0.48-1.43
		c0.01-0.04,0.02-0.09,0.02-0.14c0-0.38-0.01-0.76-0.01-1.14c0.01-0.43,0.03-0.85,0.06-1.28c0.04-0.56,0.08-1.12,0.14-1.68
		c0.05-0.51,0.12-1.03,0.19-1.54c0.06-0.41,0.11-0.81,0.2-1.21c0.09-0.4,0.22-0.78,0.33-1.17C4.96,8.8,5,8.74,5.04,8.68
		c0.02-0.03,0.07-0.05,0.11-0.07C5.17,8.6,5.2,8.61,5.2,8.6c0.09-0.13,0.2-0.06,0.29,0c0.25,0.15,0.49,0.31,0.73,0.48
		C6.39,9.2,6.55,9.35,6.71,9.48c0.3,0.24,0.61,0.47,0.89,0.73c0.66,0.6,1.26,1.27,1.84,1.95c0.09,0.1,0.18,0.21,0.26,0.32
		c0.06,0.07,0.12,0.1,0.23,0.08c0.62-0.12,1.23-0.23,1.86-0.25c0.53-0.02,1.06-0.06,1.59-0.06c0.64,0,1.28,0.04,1.92,0.08
		c0.15,0.01,0.3,0.05,0.44,0.11c0.46,0.2,0.91,0.4,1.35,0.63c0.29,0.15,0.55,0.35,0.82,0.53c0.4,0.27,0.8,0.53,1.19,0.8
		c0.62,0.43,1.12,0.98,1.57,1.58c0.46,0.61,0.87,1.25,1.22,1.94c0.13,0.25,0.21,0.53,0.29,0.8c0.15,0.47,0.29,0.94,0.42,1.41
		c0.1,0.36,0.16,0.73,0.24,1.09c0.11,0.51,0.12,1.02,0.11,1.53c-0.02,0.63-0.21,1.21-0.51,1.76c-0.33,0.6-0.75,1.12-1.25,1.59
		c-0.06,0.05-0.12,0.1-0.19,0.15c-0.16-0.07-0.34-0.15-0.54-0.25c0.09-0.08,0.17-0.16,0.25-0.23c0.58-0.46,1.04-1.01,1.39-1.66
		c0.19-0.36,0.3-0.73,0.29-1.14c0-0.21,0-0.43,0-0.67c-0.08,0.05-0.14,0.08-0.19,0.11c-0.33,0.19-0.65,0.39-0.98,0.56
		c-0.31,0.16-0.62,0.32-0.95,0.43c-0.17,0.06-0.38,0.03-0.57,0.03c-0.31,0-0.62,0.01-0.93,0c-0.3-0.01-0.6-0.04-0.89-0.09
		c-0.12-0.02-0.22-0.13-0.33-0.19c-0.04-0.02-0.09-0.03-0.13-0.05c-0.34-0.18-0.59-0.47-0.85-0.74c-0.29-0.3-0.5-0.66-0.7-1.02
		c-0.15-0.27-0.32-0.53-0.46-0.8c-0.27-0.51-0.52-1.04-0.78-1.55c-0.09-0.18-0.19-0.35-0.29-0.54c-0.06,0.36-0.12,0.68-0.17,1.01
		c-0.05,0.31-0.08,0.62-0.13,0.94c-0.08,0.52-0.27,1.01-0.51,1.48c-0.19,0.38-0.4,0.76-0.59,1.15c-0.23,0.47-0.55,0.88-0.92,1.26
		c-0.21,0.21-0.46,0.36-0.71,0.51c-0.12,0.07-0.25,0.11-0.37,0.19c-0.4,0.26-0.85,0.37-1.3,0.49c-0.42,0.11-0.85,0.13-1.27,0.09
		c-0.37-0.04-0.74-0.14-1.11-0.2c-0.43-0.07-0.82-0.26-1.2-0.45c-0.48-0.23-0.95-0.47-1.42-0.72c-0.13-0.06-0.24-0.15-0.36-0.22
		C4.3,23.99,4.29,23.99,4.28,24z M7.06,21.29c-0.01,0.01-0.02,0.02-0.03,0.03c0,0.01,0.01,0.03,0.01,0.04
		c0.21,0.51,0.57,0.92,1.01,1.25c0.37,0.28,0.82,0.36,1.27,0.37c0.21,0,0.43,0,0.64-0.02c0.13-0.01,0.26-0.03,0.38-0.07
		c0.73-0.28,1.4-0.65,1.92-1.25c0.12-0.14,0.13-0.17,0.05-0.33c-0.21-0.42-0.55-0.7-0.9-0.98c-0.44-0.35-0.97-0.5-1.51-0.59
		c-0.3-0.05-0.62-0.08-0.93-0.05c-0.41,0.04-0.77,0.22-1.1,0.47c-0.05,0.04-0.1,0.1-0.15,0.15c0.04,0.01,0.07,0.01,0.1,0
		c0.34-0.15,0.7-0.23,1.07-0.3c0.78-0.13,1.5,0.04,2.18,0.43c0.07,0.04,0.09,0.08,0.05,0.15c-0.05,0.08-0.11,0.16-0.14,0.25
		c-0.05,0.12-0.13,0.14-0.24,0.13c-0.05,0-0.1-0.01-0.15-0.01c-0.18-0.02-0.36-0.03-0.54-0.05c-0.01,0.01-0.02,0.02-0.03,0.03
		c0.12,0.22,0.23,0.43,0.36,0.65c0.04,0.07,0.07,0.11,0,0.18c-0.09,0.08-0.17,0.18-0.27,0.25c-0.11,0.08-0.24,0.13-0.36,0.19
		c-0.34,0.16-0.69,0.27-1.08,0.2C8.34,22.33,8.05,22.16,7.76,22c-0.19-0.11-0.36-0.25-0.47-0.45C7.24,21.45,7.14,21.37,7.06,21.29z
		 M16.91,21.22c-0.01,0.01-0.02,0.03-0.03,0.04c0.18,0.14,0.35,0.3,0.54,0.42c0.36,0.22,0.58,0.29,1.01,0.34
		c0.67,0.08,1.26-0.15,1.75-0.58c0.39-0.33,0.72-0.72,0.87-1.22c0.02-0.05,0.03-0.1,0.06-0.15c0.05-0.08,0.02-0.14-0.04-0.19
		c-0.1-0.08-0.2-0.18-0.31-0.25c-0.65-0.47-1.37-0.74-2.18-0.6c-0.45,0.08-0.87,0.26-1.23,0.55c-0.23,0.18-0.47,0.59-0.49,0.81
		c0.02-0.02,0.04-0.04,0.05-0.05c0.52-0.53,1.12-0.91,1.88-0.96c0.39-0.02,0.77,0.04,1.15,0.15c0.03,0.01,0.07,0.04,0.07,0.06
		c0.03,0.18,0.01,0.36-0.07,0.51c-0.17-0.03-0.33-0.07-0.5-0.09c-0.17-0.02-0.19,0-0.26,0.17c0.17,0.16,0.34,0.31,0.5,0.47
		c-0.25,0.41-0.57,0.73-1,0.89c-0.18,0.07-0.38,0.14-0.56,0.11c-0.32-0.06-0.62-0.19-0.93-0.29C17.11,21.32,17.01,21.26,16.91,21.22
		z M10.75,16.25c-0.05,0-0.1,0-0.15,0.01c-0.22,0.03-0.38,0.24-0.33,0.45c0.02,0.1,0.04,0.2,0.07,0.29
		c0.03,0.08,0.07,0.15,0.12,0.21c0.23,0.29,0.52,0.5,0.9,0.58c0.03,0.01,0.05,0.02,0.08,0.03c0.13,0.03,0.25,0.07,0.38,0.09
		c0.09,0.02,0.17,0,0.2-0.09c0.04-0.13,0.06-0.26,0.1-0.38c0.04-0.14,0.01-0.27-0.07-0.39c-0.04-0.06-0.09-0.12-0.13-0.18
		C11.63,16.47,11.23,16.28,10.75,16.25z M16.73,17.6c0-0.01,0.01-0.02,0.01-0.03c0.02,0,0.03,0,0.05,0
		c0.04-0.01,0.08-0.02,0.12-0.03c0.49-0.12,0.83-0.45,1.14-0.81c0.1-0.11,0.09-0.25-0.01-0.35c-0.08-0.08-0.18-0.15-0.29-0.21
		c-0.22-0.12-0.46-0.2-0.7-0.09c-0.16,0.07-0.32,0.15-0.46,0.25c-0.23,0.16-0.41,0.37-0.49,0.66c-0.05,0.17,0.02,0.31,0.13,0.38
		C16.37,17.48,16.56,17.53,16.73,17.6z M6.2,10.82c-0.01,0-0.02,0.01-0.03,0.01c0,0.05,0,0.1,0.01,0.14
		c0.07,0.28,0.15,0.56,0.23,0.84c0.1,0.37,0.2,0.75,0.3,1.12c0.05,0.18,0.11,0.37,0.15,0.55c0.01,0.03,0,0.09-0.02,0.1
		c-0.3,0.17-0.47,0.45-0.67,0.71c-0.05,0.06-0.09,0.12-0.14,0.19c-0.04,0.06-0.09,0.12-0.13,0.19c0.28-0.25,0.6-0.43,0.92-0.61
		c0.18-0.1,0.37-0.2,0.55-0.3c0.05-0.02,0.11-0.04,0.08-0.12c-0.18-0.45-0.39-0.9-0.54-1.36c-0.16-0.49-0.36-0.94-0.64-1.37
		C6.25,10.87,6.22,10.84,6.2,10.82z M12.29,20.21c-0.02-0.37-0.15-0.69-0.33-0.98c-0.01-0.02-0.04-0.04-0.06-0.05
		c-0.4-0.23-0.8-0.47-1.3-0.45c-0.05,0-0.11-0.02-0.16-0.01c-0.15,0-0.29,0.01-0.44,0.01c0,0.01,0,0.03-0.01,0.04
		c0.04,0.02,0.07,0.05,0.11,0.07c0.24,0.11,0.47,0.24,0.72,0.33c0.36,0.14,0.67,0.33,0.94,0.61c0.13,0.13,0.27,0.25,0.41,0.37
		C12.2,20.17,12.24,20.18,12.29,20.21z M16.53,19.37c0.4-0.22,0.81-0.44,1.2-0.67c0.31-0.18,0.62-0.39,0.98-0.48
		c0.03-0.01,0.06-0.03,0.08-0.04c-0.19-0.04-0.36-0.06-0.54-0.08c-0.5-0.05-0.5-0.04-0.93,0.22C16.91,18.57,16.64,18.9,16.53,19.37z
		 M11.97,22.54c-0.01-0.01-0.02-0.01-0.02-0.02c-0.38,0.24-1.2,1.05-1.25,1.25c0.1-0.05,0.19-0.1,0.28-0.14
		c0.27-0.09,0.45-0.28,0.6-0.51C11.71,22.92,11.84,22.73,11.97,22.54z M17.19,22.02c0.13,0.55,0.47,0.85,1.01,0.9
		C17.82,22.64,17.59,22.23,17.19,22.02z"/>
	<path d="M18.28,13.39c0.38-0.88,0.84-1.74,1.08-2.68c-0.01-0.01-0.02-0.01-0.03-0.02c-0.5,0.81-1,1.61-1.51,2.43
		c-0.53-0.4-1.17-0.66-1.8-0.96c0.09-0.08,0.17-0.15,0.25-0.23c0.29-0.29,0.59-0.58,0.87-0.89c0.43-0.48,0.89-0.92,1.36-1.34
		c0.56-0.5,1.12-1.01,1.68-1.51c0.08-0.07,0.17-0.14,0.26-0.21c0.09-0.08,0.26-0.03,0.3,0.08c0.17,0.44,0.34,0.87,0.51,1.31
		c0.12,0.32,0.14,0.66,0.18,0.99c0.07,0.52,0.16,1.03,0.21,1.55c0.04,0.45,0.06,0.91,0.06,1.37c0.01,0.66-0.01,1.33-0.02,1.99
		c0,0.3-0.02,0.61-0.02,0.91c0,0.25,0.03,0.5,0.04,0.75C20.81,15.51,19.73,14.28,18.28,13.39z"/>
	<path d="M13.54,25.33c-0.01,0.11-0.02,0.21-0.04,0.31c0.22-0.09,0.43-0.17,0.64-0.25c0.34-0.14,0.68-0.27,1.01-0.42
		c0.1-0.04,0.2-0.11,0.28-0.18c0.12-0.12,0.06-0.28,0.08-0.43c0-0.03-0.05-0.07-0.08-0.09c-0.23-0.09-0.41-0.25-0.59-0.41
		c-0.21-0.19-0.41-0.38-0.62-0.57c-0.01-0.01-0.02-0.03-0.05-0.07c0.78-0.13,1.53-0.24,2.33-0.24c-0.09,0.17-0.17,0.32-0.25,0.46
		c-0.1,0.19-0.19,0.39-0.28,0.58c-0.02,0.04-0.04,0.1-0.07,0.13c-0.18,0.15-0.08,0.35-0.1,0.53c0,0.02,0.08,0.06,0.12,0.06
		c0.32,0.03,0.64,0.06,0.95,0.06c0.43,0.01,0.82,0.15,1.2,0.33c0.72,0.34,1.43,0.69,2.15,1.04c0.28,0.14,0.56,0.28,0.84,0.42
		c0.21,0.11,0.28,0.21,0.23,0.44c-0.08,0.31-0.2,0.61-0.52,0.76c-0.1,0.05-0.19,0.08-0.31,0.02c-0.41-0.2-0.83-0.39-1.24-0.6
		c-0.35-0.17-0.69-0.35-1.03-0.54c-0.35-0.2-0.69-0.43-1.04-0.65c-0.47-0.3-0.93-0.6-1.4-0.89c-0.03-0.02-0.09-0.02-0.13-0.01
		c-0.66,0.24-1.32,0.49-1.98,0.73c-0.07,0.03-0.15,0.04-0.2,0.08c-0.06,0.05-0.11,0.13-0.16,0.19c-0.07,0.09-0.15,0.17-0.24,0.27
		C12.93,26.06,13.22,25.41,13.54,25.33z M20.61,26.67c-0.17-0.07-0.32-0.13-0.46-0.21c-0.32-0.18-0.69-0.27-1-0.5
		c-0.14-0.11-0.33-0.16-0.5-0.24c-0.34-0.15-0.68-0.29-1-0.45c-0.27-0.14-0.52-0.06-0.76,0.03c-0.15,0.05-0.15,0.14-0.02,0.24
		c0.11,0.08,0.23,0.15,0.35,0.22c0.31,0.19,0.62,0.37,0.93,0.55c0.5,0.28,1,0.56,1.51,0.83c0.16,0.09,0.33,0.15,0.51,0.23
		C20.21,27.08,20.36,26.85,20.61,26.67z M20.6,27.53c0.01,0.01,0.02,0.06,0.04,0.07c0.03,0.01,0.08-0.01,0.11-0.03
		c0.05-0.04,0.11-0.08,0.14-0.13c0.06-0.12,0.11-0.25,0.16-0.37c0.01-0.02-0.03-0.07-0.06-0.1c-0.01-0.01-0.06-0.01-0.08,0.01
		C20.73,27.11,20.62,27.28,20.6,27.53z"/>
	<path d="M4.65,25.66c0.69,0.83,1.57,1.43,2.5,1.97c-0.26-0.02-0.53,0.04-0.76-0.12c-0.33-0.24-0.67-0.47-1-0.72
		c-0.18-0.14-0.34-0.3-0.5-0.46c-0.01-0.01-0.02-0.02-0.03-0.04c-0.08-0.2-0.16-0.4-0.25-0.6C4.62,25.68,4.63,25.67,4.65,25.66z"/>
	<path d="M14.75,11.99c0.18-0.03,0.35-0.06,0.51-0.1c0.08-0.02,0.14-0.07,0.21-0.11c0.42-0.26,0.84-0.52,1.27-0.78
		c0.06-0.04,0.13-0.07,0.2-0.1c0.01,0.01,0.02,0.02,0.03,0.03c-0.03,0.04-0.05,0.09-0.08,0.12c-0.25,0.24-0.5,0.48-0.76,0.72
		c-0.13,0.12-0.25,0.24-0.38,0.35c-0.04,0.04-0.11,0.06-0.16,0.06c-0.23-0.02-0.47-0.04-0.7-0.07c-0.02,0-0.05-0.03-0.07-0.05
		C14.8,12.04,14.79,12.03,14.75,11.99z"/>
	<path d="M3.82,15.78c0.01,0.07,0.02,0.14,0.02,0.21c0.01,0.1,0.01,0.19,0.01,0.29c0.03,0.38,0,0.75-0.17,1.11
		c-0.16,0.35-0.27,0.73-0.4,1.1c-0.01,0.02-0.02,0.05-0.03,0.07c0.03-0.52,0.01-1.04,0.19-1.54c0.14-0.39,0.23-0.79,0.34-1.18
		c0.01-0.02,0.01-0.04,0.02-0.06C3.81,15.78,3.82,15.78,3.82,15.78z"/>
	<path d="M7.37,27.73c0.66,0.18,1.26,0.44,1.87,0.7C8.71,28.67,7.71,28.31,7.37,27.73z"/>
	<path d="M22.03,17.75c0.15,0.14,0.35,0.32,0.55,0.5c0.03,0.03,0.05,0.08,0.06,0.12c0.08,0.4,0.15,0.8,0.1,1.21
		c0,0.03-0.01,0.06-0.02,0.1C22.48,19.01,22.24,18.34,22.03,17.75z"/>
	<path d="M11.42,16.78c0.56,0.23,0.55,0.38,0.44,0.85C11.77,17.57,11.58,17.21,11.42,16.78z"/>
	<path d="M16.94,16.46c-0.17,0.28-0.29,0.59-0.59,0.75C16.26,16.92,16.5,16.46,16.94,16.46z"/>
	<path class="st1" d="M21.16,6.46c-0.22-0.18-0.45-0.33-0.68-0.5c-0.17-0.13-0.34-0.26-0.54-0.42c0.25,0.4,0.51,0.75,0.83,1.05
		c0.14,0.13,0.3,0.19,0.49,0.18c0.39-0.02,0.78-0.06,1.15-0.2c-0.14,0.02-0.29,0.04-0.43,0.05C21.69,6.67,21.41,6.67,21.16,6.46z"/>
	<path class="st1" d="M23.97,11.42c0.31-0.11,0.62-0.21,0.94-0.27c0.4-0.08,0.81-0.11,1.21-0.23c0.37-0.11,0.6-0.38,0.82-0.67
		c0.02-0.03,0.04-0.08,0.04-0.12c0.04-0.21,0.09-0.41,0.13-0.62c0.01-0.06,0.02-0.13,0.04-0.22c-0.11,0.08-0.19,0.13-0.26,0.2
		c-0.19,0.21-0.37,0.44-0.56,0.65c-0.12,0.13-0.24,0.27-0.38,0.39c-0.07,0.06-0.16,0.12-0.25,0.13c-0.27,0.03-0.55,0.05-0.83,0.06
		c-0.45,0-0.9,0-1.34,0.12c-0.17,0.05-0.31,0.13-0.42,0.26c-0.19,0.24-0.38,0.48-0.57,0.73c-0.02,0.03-0.04,0.07-0.04,0.1
		c-0.06,0.54-0.07,1.09,0.01,1.67c0.06-0.16,0.11-0.29,0.16-0.43c0.14-0.41,0.36-0.77,0.59-1.13
		C23.44,11.75,23.66,11.54,23.97,11.42z"/>
	<path class="st1" d="M24.02,16.33c-0.05-0.04-0.08-0.06-0.1-0.09c-0.12-0.14-0.26-0.26-0.36-0.41c-0.35-0.52-0.47-1.11-0.52-1.72
		c-0.01-0.14-0.01-0.3,0.04-0.43c0.21-0.55,0.45-1.09,0.68-1.64c0.02-0.04,0.04-0.09,0.05-0.13c-0.19,0.12-0.31,0.29-0.41,0.47
		c-0.3,0.57-0.54,1.16-0.67,1.79c-0.07,0.32-0.09,0.63,0.04,0.95c0.09,0.21,0.15,0.43,0.22,0.64c0.01,0.04,0.04,0.08,0.07,0.1
		c0.12,0.1,0.25,0.2,0.37,0.29C23.6,16.28,23.8,16.31,24.02,16.33z"/>
	<path class="st1" d="M25.89,10.02c-0.22,0.03-0.45,0.05-0.68,0.09c-0.19,0.03-0.32,0.17-0.49,0.29
		C25.18,10.42,25.58,10.37,25.89,10.02z"/>
	<path class="st1" d="M22.71,11.15c0.17-0.25,0.38-0.45,0.69-0.54c0.18-0.05,0.37-0.12,0.52-0.23c0.35-0.26,0.73-0.47,1.16-0.55
		c0.44-0.09,0.86-0.23,1.26-0.41c0.38-0.18,0.68-0.46,0.9-0.8c0.15-0.22,0.22-0.52,0.28-0.79c0.05-0.22-0.08-0.43-0.21-0.6
		c-0.27-0.37-0.55-0.74-0.84-1.1c-0.06-0.07-0.15-0.11-0.23-0.17c-0.01,0.01-0.01,0.02-0.02,0.03c0.07,0.14,0.16,0.27,0.21,0.42
		c0.05,0.15,0.05,0.31,0.07,0.47c0.01,0.09,0.01,0.18,0.01,0.27c-0.01,0.48-0.04,0.95-0.04,1.42c0,0.15-0.08,0.19-0.17,0.25
		c-0.05,0.03-0.11,0.03-0.17,0.04c-0.45,0.08-0.9,0.18-1.33,0.37c-0.34,0.16-0.7,0.28-1.04,0.44c-0.21,0.09-0.41,0.21-0.62,0.32
		c-0.02,0.01-0.05,0.04-0.06,0.07c-0.19,0.37-0.37,0.73-0.55,1.1c-0.03,0.05-0.02,0.12-0.04,0.19
		C22.61,11.28,22.66,11.22,22.71,11.15z"/>
	<path class="st1" d="M25.93,8.62c0.25-0.06,0.25-0.06,0.26-0.3c0.03-0.62,0.03-1.24-0.06-1.85c-0.05-0.34-0.23-0.6-0.53-0.76
		c-0.12-0.06-0.27-0.06-0.41-0.08c-0.41-0.05-0.8-0.06-1.15,0.22c-0.09,0.07-0.2,0.11-0.31,0.17c0,0.01,0.01,0.01,0.01,0.02
		c0.02,0,0.04,0,0.05,0c0.38-0.05,0.75-0.1,1.13-0.14c0.05-0.01,0.11,0.01,0.16,0.02c0.16,0.05,0.2,0.2,0.25,0.33
		c0.25,0.56,0.35,1.16,0.47,1.75C25.86,8.21,25.89,8.42,25.93,8.62z"/>
	<path class="st1" d="M26.71,20.96c0.16-0.41,0.37-0.81,0.59-1.2c0.14-0.24,0.16-0.48,0.1-0.73c-0.04-0.16-0.12-0.31-0.17-0.47
		c-0.08-0.23-0.16-0.47-0.24-0.7c-0.02-0.06-0.06-0.11-0.09-0.18c-0.12,0.7-0.25,1.39-0.36,2.07c-0.07,0.41-0.1,0.82-0.17,1.23
		c-0.06,0.31-0.16,0.61-0.23,0.92c-0.04,0.17-0.14,0.31-0.26,0.41c-0.2,0.16-0.43,0.28-0.64,0.43c-0.15,0.1-0.32,0.19-0.44,0.33
		c-0.21,0.24-0.37,0.52-0.49,0.83c-0.12,0.32-0.25,0.64-0.38,0.96c-0.21,0.52-0.43,1.04-0.64,1.56c0.18-0.08,0.37-0.11,0.45-0.32
		c0.05-0.12,0.1-0.23,0.15-0.34c0.13-0.29,0.26-0.59,0.4-0.88c0.17-0.33,0.37-0.65,0.54-0.99c0.08-0.17,0.19-0.31,0.33-0.43
		c0.17-0.15,0.35-0.28,0.53-0.42c0.17-0.13,0.37-0.23,0.49-0.39c0.21-0.26,0.38-0.55,0.4-0.91C26.59,21.48,26.62,21.2,26.71,20.96z"
		/>
	<path class="st1" d="M27.81,19.67c-0.01,0-0.02,0.01-0.04,0.01c-0.03,0.39-0.05,0.77-0.09,1.16c-0.02,0.15-0.05,0.31-0.11,0.45
		c-0.09,0.19-0.21,0.37-0.33,0.54c-0.24,0.33-0.48,0.65-0.73,0.98c0.01,0.01,0.02,0.02,0.02,0.03c0.1-0.05,0.21-0.1,0.31-0.15
		c0.27-0.13,0.55-0.23,0.78-0.43c0.1-0.08,0.21-0.17,0.27-0.28c0.07-0.16,0.11-0.33,0.14-0.51c0.05-0.38,0.02-1.1-0.05-1.31
		C27.93,19.99,27.87,19.83,27.81,19.67z"/>
	<path class="st1" d="M26.45,18.37c0.02-0.06,0.04-0.1,0.05-0.14c0.03-0.32,0.05-0.64,0.09-0.96c0.02-0.13-0.03-0.21-0.09-0.31
		c-0.02-0.03-0.03-0.06-0.05-0.08c-0.02,0-0.06,0-0.1-0.01c-0.12-0.03-0.23-0.08-0.35-0.09c-0.43-0.04-0.85-0.07-1.28-0.08
		c-0.49-0.01-0.97-0.06-1.45-0.26c0.06,0.1,0.09,0.24,0.18,0.31c0.12,0.1,0.27,0.16,0.42,0.2c0.49,0.15,0.99,0.29,1.49,0.41
		c0.48,0.11,0.79,0.41,1,0.83C26.37,18.24,26.41,18.3,26.45,18.37z"/>
	<path class="st1" d="M27.01,21.54c0.23-0.27,0.29-0.57,0.23-0.92C27.04,21.01,26.97,21.31,27.01,21.54z"/>
	<path d="M28.36,19.88c-0.01-0.07-0.03-0.15-0.06-0.22c-0.28-0.68-0.55-1.37-0.85-2.04c-0.15-0.34-0.33-0.66-0.51-0.99
		c-0.06-0.11-0.14-0.21-0.27-0.25c-0.01,0-0.02-0.01-0.03-0.01l-2.16-0.32c-0.14,0.01-0.23-0.05-0.3-0.16
		c-0.31-0.57-0.6-1.14-0.72-1.79c-0.03-0.17,0-0.31,0.08-0.45c0.03-0.04,0.05-0.09,0.07-0.13c0.23-0.51,0.46-1.02,0.67-1.54
		c0.09-0.23,0.25-0.33,0.48-0.36c0.48-0.05,0.97-0.1,1.45-0.16c0.1-0.01,0.21-0.02,0.29-0.07c0.15-0.08,0.29-0.2,0.44-0.3
		c0.23-0.15,0.36-0.37,0.42-0.62c0.1-0.43,0.19-0.86,0.24-1.3c0.04-0.34,0.09-0.67,0.23-0.98c0.05-0.11,0.08-0.22,0.11-0.34
		C28,7.67,28,7.47,27.88,7.29c-0.36-0.55-0.79-1.04-1.26-1.49c-0.19-0.19-0.42-0.35-0.68-0.42c-0.5-0.13-1.01-0.2-1.53-0.15
		c-0.16,0.02-0.33,0.04-0.46,0.12c-0.3,0.16-0.59,0.35-0.87,0.55c-0.25,0.18-0.52,0.26-0.81,0.31c-0.27,0.04-0.54,0.11-0.8-0.02
		c-0.17-0.08-0.33-0.18-0.49-0.28c-0.31-0.21-0.6-0.43-0.91-0.63c-0.22-0.14-0.45-0.26-0.67-0.39c-0.03-0.02-0.06-0.03-0.12-0.05
		c0.02,0.07,0.03,0.11,0.05,0.15c0.07,0.15,0.15,0.3,0.22,0.45c0.24,0.56,0.58,1.06,1,1.51c0.13,0.14,0.3,0.27,0.48,0.27
		c0.32-0.01,0.65,0.04,0.97-0.07c0.06-0.02,0.12-0.02,0.18-0.03c0.25-0.04,0.5-0.08,0.73-0.23c0.24-0.15,0.51-0.28,0.78-0.36
		c0.36-0.1,0.74-0.13,1.11-0.2c0.07-0.01,0.12,0.01,0.14,0.08c0.08,0.27,0.18,0.55,0.25,0.82c0.09,0.37,0.15,0.74,0.22,1.1
		c0.04,0.19,0.01,0.27-0.18,0.34c-0.21,0.08-0.42,0.15-0.63,0.23c-0.51,0.2-1.03,0.37-1.51,0.66c-0.18,0.11-0.34,0.24-0.41,0.45
		c0,0.01-0.02,0.03-0.02,0.04c-0.22,0.44-0.48,0.85-0.56,1.36c-0.15,1.02-0.25,2.04-0.03,3.06c0.19,0.89,0.45,1.77,0.88,2.58
		c0.04,0.08,0.13,0.16,0.22,0.21c0.46,0.25,0.97,0.34,1.46,0.49c0.45,0.13,0.87,0.31,1.21,0.65c0.13,0.13,0.22,0.27,0.22,0.45
		c0,0.3,0,0.61-0.05,0.91c-0.09,0.63-0.21,1.26-0.33,1.89c-0.01,0.07-0.06,0.15-0.11,0.19c-0.26,0.2-0.52,0.41-0.8,0.59
		c-0.38,0.24-0.66,0.54-0.84,0.96c-0.3,0.73-0.63,1.44-0.87,2.19c-0.08,0.24-0.16,0.47-0.25,0.7c-0.02,0.05-0.07,0.1-0.12,0.13
		c-0.21,0.11-0.42,0.21-0.63,0.32c-0.13,0.07-0.26,0.13-0.41,0.21c0.03,0.01,0.05,0.03,0.07,0.03c0.29-0.01,0.58,0,0.86-0.04
		c0.27-0.04,0.54-0.12,0.81-0.19c0.25-0.06,0.48-0.16,0.63-0.37c0.19-0.27,0.36-0.56,0.53-0.85c0.29-0.48,0.56-0.97,0.86-1.44
		c0.12-0.19,0.26-0.38,0.44-0.5c0.42-0.29,0.91-0.47,1.39-0.65c0.29-0.11,0.6-0.17,0.84-0.39c0.08-0.07,0.18-0.16,0.21-0.27
		c0.08-0.25,0.15-0.52,0.19-0.78C28.57,20.96,28.45,20.42,28.36,19.88z M21.26,6.78c-0.19,0.01-0.35-0.05-0.49-0.18
		c-0.32-0.3-0.57-0.66-0.83-1.05c0.2,0.15,0.37,0.29,0.54,0.42c0.22,0.17,0.46,0.32,0.68,0.5c0.25,0.2,0.53,0.21,0.82,0.18
		c0.14-0.02,0.29-0.04,0.43-0.05C22.04,6.72,21.65,6.76,21.26,6.78z M25.35,6.25c-0.06-0.13-0.1-0.27-0.25-0.33
		c-0.05-0.02-0.11-0.03-0.16-0.02C24.55,5.95,24.18,6,23.8,6.05c-0.02,0-0.04,0-0.05,0c0-0.01-0.01-0.01-0.01-0.02
		c0.1-0.06,0.22-0.1,0.31-0.17c0.35-0.28,0.74-0.28,1.15-0.22c0.14,0.02,0.29,0.02,0.41,0.08c0.3,0.16,0.48,0.42,0.53,0.76
		c0.09,0.61,0.09,1.23,0.06,1.85c-0.01,0.24-0.01,0.24-0.26,0.3c-0.04-0.21-0.07-0.41-0.11-0.62C25.7,7.41,25.59,6.81,25.35,6.25z
		 M22.57,11.16c0.18-0.37,0.37-0.74,0.55-1.1c0.01-0.03,0.03-0.06,0.06-0.07c0.21-0.11,0.41-0.23,0.62-0.32
		c0.34-0.15,0.7-0.28,1.04-0.44c0.42-0.19,0.87-0.29,1.33-0.37c0.06-0.01,0.12-0.01,0.17-0.04c0.09-0.06,0.17-0.1,0.17-0.25
		c-0.01-0.47,0.02-0.95,0.04-1.42c0-0.09,0-0.18-0.01-0.27c-0.02-0.16-0.02-0.32-0.07-0.47c-0.05-0.15-0.14-0.28-0.21-0.42
		c0.01-0.01,0.01-0.02,0.02-0.03c0.08,0.06,0.17,0.1,0.23,0.17c0.28,0.36,0.57,0.73,0.84,1.1c0.13,0.18,0.26,0.38,0.21,0.6
		c-0.06,0.27-0.12,0.56-0.28,0.79c-0.23,0.33-0.52,0.62-0.9,0.8c-0.41,0.19-0.83,0.33-1.26,0.41c-0.44,0.09-0.81,0.29-1.16,0.55
		c-0.15,0.11-0.34,0.18-0.52,0.23c-0.31,0.08-0.52,0.28-0.69,0.54c-0.05,0.07-0.1,0.14-0.17,0.2
		C22.54,11.28,22.54,11.22,22.57,11.16z M25.89,10.02c-0.31,0.35-0.71,0.39-1.17,0.37c0.17-0.12,0.3-0.26,0.49-0.29
		C25.44,10.08,25.67,10.05,25.89,10.02z M22.51,13.59c-0.08-0.58-0.07-1.12-0.01-1.67c0-0.04,0.02-0.07,0.04-0.1
		c0.19-0.24,0.38-0.49,0.57-0.73c0.11-0.14,0.25-0.21,0.42-0.26c0.44-0.12,0.89-0.11,1.34-0.12c0.28,0,0.55-0.02,0.83-0.06
		c0.09-0.01,0.18-0.07,0.25-0.13c0.13-0.12,0.26-0.25,0.38-0.39c0.19-0.22,0.37-0.44,0.56-0.65c0.07-0.07,0.15-0.12,0.26-0.2
		c-0.02,0.09-0.03,0.16-0.04,0.22c-0.04,0.21-0.08,0.41-0.13,0.62c-0.01,0.04-0.02,0.09-0.04,0.12c-0.22,0.29-0.45,0.55-0.82,0.67
		c-0.4,0.12-0.81,0.15-1.21,0.23c-0.32,0.07-0.63,0.16-0.94,0.27c-0.31,0.11-0.53,0.33-0.71,0.61c-0.23,0.36-0.45,0.72-0.59,1.13
		C22.62,13.3,22.57,13.43,22.51,13.59z M23.06,15.87c-0.03-0.02-0.05-0.07-0.07-0.1c-0.07-0.21-0.13-0.43-0.22-0.64
		c-0.13-0.31-0.11-0.63-0.04-0.95c0.13-0.63,0.37-1.23,0.67-1.79c0.1-0.19,0.22-0.36,0.41-0.47c-0.02,0.04-0.04,0.09-0.05,0.13
		c-0.23,0.54-0.46,1.09-0.68,1.64c-0.05,0.13-0.05,0.29-0.04,0.43c0.05,0.61,0.17,1.2,0.52,1.72c0.1,0.15,0.24,0.28,0.36,0.41
		c0.02,0.03,0.05,0.05,0.1,0.09c-0.22-0.02-0.42-0.05-0.59-0.17C23.31,16.07,23.18,15.97,23.06,15.87z M25.34,17.35
		c-0.5-0.11-0.99-0.26-1.49-0.41c-0.15-0.04-0.3-0.11-0.42-0.2c-0.09-0.07-0.12-0.2-0.18-0.31c0.48,0.19,0.96,0.24,1.45,0.26
		c0.43,0.01,0.86,0.05,1.28,0.08c0.12,0.01,0.24,0.06,0.35,0.09c0.03,0.01,0.07,0.01,0.1,0.01c0.02,0.03,0.03,0.06,0.05,0.08
		c0.06,0.09,0.11,0.18,0.09,0.31c-0.04,0.32-0.06,0.64-0.09,0.96c0,0.04-0.03,0.08-0.05,0.14c-0.04-0.07-0.08-0.12-0.11-0.19
		C26.13,17.75,25.83,17.46,25.34,17.35z M25.7,23.04c-0.18,0.14-0.36,0.28-0.53,0.42c-0.14,0.12-0.25,0.26-0.33,0.43
		c-0.16,0.34-0.37,0.66-0.54,0.99c-0.15,0.29-0.27,0.58-0.4,0.88c-0.05,0.11-0.11,0.23-0.15,0.34c-0.08,0.2-0.27,0.24-0.45,0.32
		c0.21-0.52,0.43-1.04,0.64-1.56c0.13-0.32,0.26-0.64,0.38-0.96c0.12-0.31,0.28-0.59,0.49-0.83c0.12-0.13,0.29-0.22,0.44-0.33
		c0.21-0.14,0.44-0.27,0.64-0.43c0.12-0.1,0.22-0.24,0.26-0.41c0.07-0.31,0.17-0.61,0.23-0.92c0.07-0.41,0.11-0.82,0.17-1.23
		c0.11-0.69,0.24-1.37,0.36-2.07c0.03,0.06,0.07,0.12,0.09,0.18c0.08,0.23,0.16,0.47,0.24,0.7c0.06,0.16,0.13,0.31,0.17,0.47
		c0.06,0.25,0.03,0.49-0.1,0.73c-0.22,0.39-0.43,0.78-0.59,1.2c-0.09,0.24-0.11,0.52-0.13,0.78c-0.01,0.36-0.19,0.65-0.4,0.91
		C26.06,22.81,25.86,22.91,25.7,23.04z M27.01,21.54c-0.04-0.23,0.03-0.53,0.23-0.92C27.29,20.97,27.24,21.28,27.01,21.54z
		 M28.03,21.46c-0.02,0.17-0.06,0.35-0.14,0.51c-0.05,0.11-0.17,0.2-0.27,0.28c-0.23,0.2-0.51,0.3-0.78,0.43
		c-0.1,0.05-0.21,0.1-0.31,0.15c-0.01-0.01-0.02-0.02-0.02-0.03c0.24-0.33,0.49-0.65,0.73-0.98c0.12-0.17,0.24-0.35,0.33-0.54
		c0.06-0.14,0.1-0.3,0.11-0.45c0.04-0.38,0.06-0.77,0.09-1.16c0.01,0,0.02-0.01,0.04-0.01c0.06,0.16,0.13,0.31,0.18,0.48
		C28.05,20.36,28.08,21.09,28.03,21.46z"/>
	<path d="M25.39,21.77c0.07-0.05,0.15-0.1,0.16-0.22c0.01-0.18,0.06-0.36,0.09-0.54c0.04-0.26,0.09-0.51,0.13-0.77
		c0.01-0.06,0.02-0.13-0.09-0.12c-0.14,0.33-0.28,0.66-0.42,0.99c-0.08,0.18-0.14,0.36-0.28,0.52c-0.13,0.16-0.22,0.35-0.33,0.53
		c0.01,0.01,0.02,0.02,0.04,0.03c0.02,0,0.04-0.01,0.05-0.02C24.96,22.03,25.18,21.91,25.39,21.77z"/>
</g>
</svg>
